<?xml version="1.0" encoding="iso-8859-1"?>
<!-- Uploaded to: SVG Repo, www.svgrepo.com, Generator: SVG Repo Mixer Tools -->
<svg height="800px" width="800px" version="1.1" id="Layer_1" xmlns="http://www.w3.org/2000/svg" xmlns:xlink="http://www.w3.org/1999/xlink" 
	 viewBox="0 0 512 512" xml:space="preserve">
<path style="fill:#E88158;" d="M328.448,247.569c0,38.411-16.464,72.977-42.712,97.03h-0.011
	c-15.326-5.621-28.581-15.497-38.343-28.217c21.151-15.519,34.873-40.562,34.873-68.813c0-19.547-6.576-37.558-17.636-51.94
	c-4.875-6.354-21.504-2.826-27.955-7.589c-6.451-4.763-2.725-17.818-10.388-20.628c0,0,0,0-0.011,0
	c-9.148-3.345-19.035-5.177-29.343-5.177c-47.138,0-85.345,38.207-85.345,85.333c0,40.687,28.467,74.729,66.583,83.274
	c6.042,1.354,12.322,2.071,18.762,2.071c1.923,0,3.846-0.068,5.734-0.193c9.444,15.519,22.016,28.922,36.83,39.344
	c-10.695,3.652-22.027,5.973-33.769,6.747c-2.901,0.193-5.837,0.296-8.795,0.296c-72.647,0-131.538-58.891-131.538-131.538
	c0-66.901,49.96-122.14,114.608-130.446v-36.91h-35.84V35.84h35.84V0h44.373v35.84h35.829v44.373h-35.829v38.696
	c17.613,3.743,33.929,11.014,48.162,21.038h0.011c8.112,5.712,15.553,12.311,22.164,19.672c5.473,6.076,10.388,12.652,14.655,19.672
	c5.37,8.806,9.717,18.295,12.902,28.297C326.275,220.194,328.448,233.631,328.448,247.569z"/>
<path style="fill:#D37250;" d="M239.485,372.065c-10.695,3.652-22.027,5.973-33.769,6.747c-5.473-6.064-10.388-12.652-14.655-19.672
	c-5.359-8.795-9.717-18.284-12.902-28.297c6.042,1.354,12.322,2.071,18.762,2.071c1.923,0,3.846-0.068,5.734-0.193
	c19.217,0,23.187,3.362,27.56,8.541C237.507,349.893,243.504,352.274,239.485,372.065z"/>
<path style="fill:#5DACD8;" d="M332.021,394.889v47.138h35.829L309.834,512l-58.027-69.973h35.84v-48.936
	c-17.613-3.743-33.929-11.002-48.162-21.025c-14.814-10.422-27.386-23.825-36.83-39.344c-12.117-19.9-19.103-43.281-19.103-68.289
	c0-30.413,10.32-58.402,27.659-80.68c4.54-5.86,9.58-11.332,15.053-16.338c0.011,0,0.011,0,0.011,0
	c15.326,5.621,28.592,15.508,38.343,28.217c-6.69,4.904-12.641,10.775-17.647,17.385c-10.82,14.29-17.226,32.108-17.226,51.416
	c0,18.216,5.7,35.112,15.451,48.97c0.705,1.013,1.434,2.003,2.185,2.981c8.738,11.378,20.264,20.491,33.576,26.294
	c1.559,0.694,3.152,1.331,4.767,1.923h0.011c9.148,3.345,19.035,5.177,29.355,5.177c47.127,0,85.333-38.207,85.333-85.345
	c0-47.127-38.207-85.333-85.333-85.333c-1.934,0-3.846,0.068-5.734,0.193c-9.444-15.519-22.005-28.922-36.819-39.344
	c13.346-4.563,27.659-7.043,42.553-7.043c72.636,0,131.527,58.88,131.527,131.527C446.618,331.344,396.658,386.571,332.021,394.889z
	"/>
<path style="fill:#4C9CBF;" d="M211.211,183.751c4.54-5.86,9.58-11.332,15.053-16.338c0.011,0,0.011,0,0.011,0
	c15.326,5.621,28.592,15.508,38.343,28.217c-6.69,4.904-12.641,10.775-17.647,17.385c-0.705-1.013-1.434-2.002-2.185-2.97
	C236.06,198.667,224.523,189.565,211.211,183.751z"/>
</svg>